<?xml version="1.0" encoding="utf-8"?>
<!-- Generator: Adobe Illustrator 25.0.1, SVG Export Plug-In . SVG Version: 6.00 Build 0)  -->
<svg version="1.1" id="Layer_1" xmlns="http://www.w3.org/2000/svg" xmlns:xlink="http://www.w3.org/1999/xlink" x="0px" y="0px"
	 viewBox="0 0 1000 846" style="enable-background:new 0 0 1000 846;" xml:space="preserve">
<style type="text/css">
	.st0{fill:#FFC45F;}
</style>
<g>
	<g>
		<path d="M-1380.9,3710.3c1.9,0,1.9-3,0-3C-1382.8,3707.3-1382.8,3710.3-1380.9,3710.3L-1380.9,3710.3z"/>
	</g>
</g>
<path class="st0" d="M968,230.2L912,134.8c-9-15.3-22-24.8-31.4-30.1s-24.2-11.6-41.9-11.5L728,94.1c-27.1,0.2-55.2,15.9-70.2,38.7
	l-19-32.3l37.8-33.8c8.8-8.8,8.8-23.1,0-31.8l0,0c-8.8-8.8-23.1-8.8-31.8,0l-29.5,25.5l-2.1-3.5c-7.9-13.5-19.5-22-27.8-26.7
	S564,19.9,548.3,20.1l-98,0.8C424.9,21,398.5,36.6,386,58.7l-3.6,6.4l-29.1-24.1c-8.8-8.8-23.1-8.8-31.8,0l0,0
	c-8.8,8.8-8.8,23.1,0,31.8l37.9,32.9l-17.7,31.2l-1.2-2c-9-15.3-22-24.8-31.4-30.1c-9.4-5.3-24.2-11.6-41.9-11.5l-110.6,0.9
	c-28.6,0.2-58.5,17.8-72.6,42.7L29.3,233C15.2,258,15.5,292.6,30,317.3L86,412.7c9,15.3,22,24.8,31.4,30.1c5.3,3,12.3,6.3,20.7,8.6
	l-29.8,50.8c-8.3,14.1-8.4,34-0.3,48.2l31.3,55c5,8.8,12.4,14.4,17.7,17.5c5.3,3.1,13.8,6.8,23.9,6.9l63.3,0.4
	c11,0.1,22.3-4.3,31.1-11.4L330,712c11.9,20.3,29.2,32.9,41.7,40c12.4,7,32.2,15.4,55.7,15.2l12.1-0.1c0,0.1,0,0.3,0,0.4
	c0,32.9,26.6,59.5,59.5,59.5c32.9,0,59.5-26.6,59.5-59.5c0-0.5,0-0.9,0-1.4l15.9-0.1c38-0.3,77.7-23.6,96.5-56.7l51.4-90.7
	c2.2,1.8,4.4,3.2,6.3,4.3c5.3,3.1,13.8,6.8,23.9,6.9l63.3,0.4c16.4,0.1,33.6-9.7,41.9-23.8l32-54.6c8.3-14.1,8.4-34,0.3-48.2
	l-29.9-52.7c22.2-5.7,43-20.7,54.1-40.2l54.6-96.2C982.8,289.5,982.5,254.9,968,230.2z M370.1,421.9l22.3-39.4
	c5.5-9.7,20.7-18.6,31.9-18.7l146.9-1.2c5.3,0,11.9,2,18.1,5.5c6.2,3.5,11.3,8.2,14,12.7l25.1,42.8c2.5,7,7.5,25.9-9.3,27.4H378.7
	C360.3,449.4,368.2,426.7,370.1,421.9z M381.1,168.6l48.3-85.2c3.7-6.5,13.8-12.4,21.2-12.5l98-0.8c3.5,0,7.9,1.3,12.1,3.7
	s7.5,5.4,9.3,8.5l49.7,84.5c3.8,6.4,3.9,18.2,0.2,24.6l-48.3,85.2c-2.7,4.7-8.8,9.1-14.8,11.2l-111,0.9c-1.9-0.6-3.8-1.4-5.6-2.5
	c-4.1-2.3-7.6-5.4-9.3-8.5l-49.7-84.5C377.6,186.8,377.5,175,381.1,168.6z M134.7,384.1l-56.1-95.4c-4.3-7.2-4.4-20.5-0.2-27.8
	l54.6-96.2c4.1-7.3,15.6-14,24-14.1l110.6-0.9c4,0,9,1.5,13.7,4.1s8.5,6.1,10.5,9.6l56.1,95.4c4.3,7.2,4.4,20.5,0.2,27.8l-28.4,50.1
	L216.2,233.2c-5.8-5.8-15.2-5.8-21,0h0c-5.8,5.8-5.8,15.2,0,21l109.3,109.3l-11,19.4c-4.1,7.3-15.6,14-24,14.1l-110.6,0.9
	c-4,0-9-1.5-13.7-4.1S136.7,387.5,134.7,384.1z M258.3,590c-2.4,4.1-9,7.9-13.8,7.9l-63.3-0.4c-2.3,0-5.1-0.9-7.8-2.5
	c-2.7-1.6-4.8-3.6-6-5.6l-31.3-55c-2.4-4.2-2.3-11.8,0.1-15.9l32-54.6c2.4-4.1,9-7.9,13.8-7.9l63.3,0.4c2.3,0,5.1,0.9,7.8,2.5
	c0.6,0.4,1.2,0.8,1.8,1.2l-63.7,63.7c-3.8,3.8-3.8,10,0,13.9c3.8,3.8,10,3.8,13.9,0l39.7-39.7c-7.7,29-4,62.1,10.8,87.3L258.3,590
	L258.3,590z M625.2,637.8l-19.6,34.6c-5.5,9.7-20.7,18.6-31.9,18.7l-146.9,1.2c-5.3,0-11.9-2-18.1-5.5c-6.2-3.5-11.3-8.2-14-12.7
	L376,642.3c-11.1-17.9,2.5-20.1,7.6-20.3h231.6C619.8,622.2,631.4,624,625.2,637.8z M661,573.8c-2.6,8.2-10.9,10.6-17.1,11.2H357
	c-6.2-0.6-14.5-3-17.1-11.2c-4.4-13.8,3.9-18.8,18.2-18.8h284.6C657.1,555,665.4,560,661,573.8z M653.7,518H345.1
	c-14.3,0-22.7-5-18.2-18.8c2.6-8.2,10.9-10.6,17.1-11.2h310.8c6.2,0.6,14.5,3,17.1,11.2C676.4,513,668.1,518,653.7,518z
	 M861.8,535.4l-32,54.6c-2.4,4.1-9,7.9-13.8,7.9l-63.3-0.4c-2.3,0-5.1-0.9-7.8-2.5s-4.8-3.6-6-5.6l-0.1-0.1l4.5-7.9
	c13.7-24.1,17.2-55,10.6-82.7l38.9,38.9c3.8,3.8,10,3.8,13.9,0c3.8-3.8,3.8-10,0-13.9l-63.6-63.6c3.1-2.4,7.2-4.2,10.5-4.2l63.3,0.4
	c2.3,0,5.1,0.9,7.8,2.5c2.7,1.6,4.8,3.6,6,5.6l31.3,55C864.3,523.7,864.2,531.3,861.8,535.4z M919.6,286.6L865,382.8
	c-4.1,7.3-15.6,14-24,14.1l-110.6,0.9c-4,0-9-1.5-13.7-4.1s-8.5-6.2-10.5-9.6l-12.3-21l108.9-108.9c5.8-5.8,5.8-15.2,0-21
	s-15.2-5.8-21,0L678.3,336.7l-28.2-48c-4.3-7.2-4.4-20.5-0.2-27.8l54.6-96.2c4.1-7.3,15.6-14,24-14.1l110.6-0.9c4,0,9,1.5,13.7,4.1
	s8.5,6.1,10.5,9.6l56.1,95.4C923.6,266,923.7,279.3,919.6,286.6z"/>
</svg>
